<?xml version="1.0" standalone="no"?>
<!DOCTYPE svg PUBLIC "-//W3C//DTD SVG 20010904//EN"
 "http://www.w3.org/TR/2001/REC-SVG-20010904/DTD/svg10.dtd">
<svg version="1.0" xmlns="http://www.w3.org/2000/svg"
 width="576.000000pt" height="576.000000pt" viewBox="0 0 576.000000 576.000000"
 preserveAspectRatio="xMidYMid meet">
<metadata>
Created by potrace 1.14, written by Peter Selinger 2001-2017
</metadata>
<g transform="translate(0.000000,576.000000) scale(0.100000,-0.100000)"
fill="#000000" stroke="none">
<path d="M2678 5755 c-2 -1 -37 -5 -78 -9 -41 -3 -86 -8 -100 -10 -14 -3 -43
-7 -65 -11 -177 -26 -588 -140 -631 -176 -6 -5 -13 -7 -16 -4 -8 8 -348 -168
-446 -230 -126 -81 -271 -191 -382 -289 -97 -87 -285 -286 -330 -350 -8 -12
-23 -30 -33 -41 -22 -24 -174 -251 -211 -315 -89 -154 -222 -452 -242 -542 -1
-5 -2 -9 -4 -10 -1 -2 -3 -10 -5 -18 -2 -8 -10 -34 -19 -57 -8 -24 -13 -43
-11 -43 3 0 0 -11 -5 -25 -5 -14 -12 -36 -14 -48 -3 -12 -7 -33 -10 -47 -33
-151 -30 -138 -40 -211 -4 -26 -9 -58 -11 -70 -25 -129 -25 -648 0 -739 2 -8
6 -36 9 -62 3 -26 8 -58 11 -70 2 -13 7 -35 10 -51 5 -26 10 -50 20 -94 3 -13
7 -31 9 -41 17 -74 93 -318 115 -367 5 -11 20 -45 33 -75 62 -149 197 -394
273 -496 16 -23 37 -52 45 -64 86 -130 318 -379 475 -510 50 -41 92 -78 93
-82 2 -5 9 -8 17 -8 7 0 19 -7 26 -16 45 -55 393 -258 569 -333 41 -18 84 -36
95 -41 96 -41 359 -120 455 -136 23 -4 34 -6 100 -19 41 -8 150 -23 225 -31
142 -15 573 -8 645 11 8 2 35 6 60 9 25 3 56 8 70 11 14 3 40 8 59 11 18 3 41
7 50 10 9 2 45 11 81 19 36 8 74 18 85 21 11 3 26 6 33 6 6 1 12 4 12 8 0 4 6
7 13 7 15 0 217 68 243 81 11 5 30 14 44 20 14 6 64 29 113 51 48 22 90 40 93
40 4 0 10 3 13 8 3 4 31 21 61 37 30 16 89 51 130 77 200 128 345 245 505 404
148 149 246 268 360 440 98 147 115 177 194 340 107 217 181 436 230 670 30
145 28 135 50 335 9 76 6 507 -3 547 -2 12 -7 50 -11 84 -4 35 -8 66 -10 69
-1 3 -6 27 -9 54 -4 27 -14 77 -22 110 -8 34 -17 72 -20 86 -7 37 -94 310
-109 345 -8 17 -26 59 -40 95 -150 366 -447 769 -770 1045 -216 185 -506 366
-735 459 -36 15 -74 31 -85 36 -93 44 -390 128 -545 154 -19 3 -46 8 -59 11
-13 2 -49 7 -80 11 -31 3 -65 8 -76 11 -22 5 -491 13 -497 8z"/>
</g>
</svg>
