<?xml version="1.0" standalone="no"?>
<!DOCTYPE svg PUBLIC "-//W3C//DTD SVG 20010904//EN"
 "http://www.w3.org/TR/2001/REC-SVG-20010904/DTD/svg10.dtd">
<svg version="1.0" xmlns="http://www.w3.org/2000/svg"
 width="401.000000pt" height="401.000000pt" viewBox="0 0 401.000000 401.000000"
 preserveAspectRatio="xMidYMid meet">
<metadata>
Created by potrace 1.14, written by Peter Selinger 2001-2017
</metadata>
<g transform="translate(0.000000,401.000000) scale(0.100000,-0.100000)"
fill="#000000" stroke="none">
<path d="M1715 3984 c-595 -91 -1116 -438 -1425 -949 -394 -653 -379 -1485 39
-2127 548 -840 1634 -1145 2538 -713 496 237 872 664 1042 1181 135 410 133
849 -4 1262 -239 716 -867 1240 -1616 1347 -131 18 -451 18 -574 -1z m1319
-1246 c21 -19 69 -148 246 -668 121 -355 220 -651 220 -658 0 -33 -32 -72 -68
-82 -25 -8 -205 -10 -569 -8 -521 3 -532 3 -559 24 -24 17 -43 64 -124 300
l-96 279 -272 3 c-150 1 -272 6 -272 10 0 4 15 53 33 107 l34 100 315 3 315 2
98 -287 c54 -159 102 -296 107 -305 8 -16 25 -18 138 -18 72 0 130 1 130 3 0
1 -29 89 -64 195 l-65 192 114 0 113 0 30 -82 c16 -46 46 -134 66 -195 l38
-113 144 0 c79 0 144 1 144 3 0 1 -76 225 -169 497 l-169 495 -885 3 -885 2
-23 -67 c-12 -38 -87 -257 -166 -488 -78 -231 -143 -425 -143 -432 0 -10 81
-13 389 -13 l389 0 47 140 47 140 114 0 c63 0 114 -2 114 -4 0 -22 -153 -443
-166 -457 -34 -38 -74 -40 -621 -37 l-531 3 -25 23 c-14 13 -28 34 -31 47 -4
15 68 240 212 661 120 352 224 649 230 661 7 12 20 27 30 32 11 7 361 10 1019
11 l1002 0 25 -22z"/>
</g>
</svg>
